<?xml version="1.0" encoding="utf-8"?>
<!-- Generator: Adobe Illustrator 25.3.1, SVG Export Plug-In . SVG Version: 6.00 Build 0)  -->
<svg version="1.1" id="Layer_1" xmlns="http://www.w3.org/2000/svg" xmlns:xlink="http://www.w3.org/1999/xlink" x="0px" y="0px"
	 viewBox="0 0 301.61 58.13" style="enable-background:new 0 0 301.61 58.13;" xml:space="preserve">
<style type="text/css">
	.st0{fill:#FFFFFF;}
</style>
<path class="st0" d="M212.85,41.45c-1.54,8.78-4.52,11.75-8.73,11.75c-2.54,0-5.28-1.62-5.28-6.46V23.46h-8.98v4.4
	c0,14.49-8.02,26.04-15.26,26.04c-4.82,0-6.98-3.19-6.98-11.3V23.46h-8.97v14.66c0,11.38,3.79,20,14.23,20
	c7.67,0,14.57-8.28,16.98-15.34v3.78c0,7.43,5.64,11.58,11.57,11.58c7.3,0,11.91-4.93,13.94-16.07L212.85,41.45z M126.64,3.27
	c8.91,0,10.82,10.81,9.97,16.39h-17.98v3.42h26.93C146.32,10.49,139.27,0,125.44,0c-9.52,0-18.41,7.67-21.53,19.66h9.38
	C114.96,6.78,120.2,3.27,126.64,3.27 M127.68,54.59c-9.58,0-14.92-8.19-14.92-25.53c0-1.99,0.08-3.88,0.16-5.6h-9.77
	c-0.26,1.8-0.4,3.66-0.4,5.6c0,18.37,10.6,29.07,23.37,29.07c10.18,0,15.97-5.18,20.1-15.69l-3.15-1.09
	C140.48,49.21,135.35,54.59,127.68,54.59 M293.8,53.92V23.46h-8.97v30.46h-7.75v3.41h25.06v-3.41H293.8z M262.57,30.27
	c0-2.35,0.22-4.64,0.61-6.81h-9.58v30.46h-8.34v3.41h25.66v-3.41h-8.35V30.27z M44.44,53.92H19.05V23.46h-9.5v30.46H0.54v3.41h47.32
	v-14.3h-3.41V53.92z M75.87,3.27c8.91,0,10.82,10.81,9.97,16.39H67.85v3.42h26.93C95.55,10.49,88.49,0,74.66,0
	c-9.52,0-18.41,7.67-21.52,19.66h9.38C64.18,6.78,69.43,3.27,75.87,3.27 M76.9,54.59c-9.57,0-14.92-8.19-14.92-25.53
	c0-1.99,0.08-3.88,0.16-5.6h-9.77c-0.25,1.8-0.4,3.66-0.4,5.6c0,18.37,10.6,29.07,23.37,29.07c10.19,0,15.97-5.18,20.11-15.69
	l-3.15-1.09C89.71,49.21,84.57,54.59,76.9,54.59 M9.55,19.66h9.5V4.19h9.01V0.77H0.54v3.42h9.01V19.66z M222.39,19.66h10.45
	c2.64-9.22,8.42-15.69,13.79-15.69c4.92,0,6.97,3.18,6.97,11.3v4.39h10.46c2.65-9.22,8.43-15.69,13.78-15.69
	c4.84,0,6.99,3.18,6.99,11.3v4.39h8.97C293.69,8.42,289.87,0,279.57,0c-7.94,0-15,7.94-17.17,15.53C261.45,6.3,257.23,0,248.35,0
	c-7.94,0-14.58,7.76-16.99,14.83V4.58V0.77h-17.92v3.42h8.95V19.66z M231.36,30.27c0-2.35,0.21-4.64,0.61-6.81h-9.57v30.46h-7.15
	v3.41h23.85v-3.41h-7.73V30.27z M189.86,19.66h8.98L198.8,4.19h0.02V0.77h-0.02h-17.89v3.42h8.98L189.86,19.66z M158.65,19.66h8.97
	V4.19V0.77h-17.91v3.42h8.95L158.65,19.66z"/>
</svg>
